<?xml version="1.0" encoding="UTF-8" standalone="no"?>

<svg
   xmlns:svg="http://www.w3.org/2000/svg"
   xmlns="http://www.w3.org/2000/svg"
   x="0px"
   y="0px"
   width="1200px"
   height="1200px"
   viewBox="0 0 1200 1200"
   enable-background="new 0 0 1200 1200">
	<rect
	   style="fill:#000000;stroke:none"
	   id="A1"
	   width="150"
	   height="150"
	   x="0"
	   y="1050"
	/>
	<rect
	   y="1050"
	   x="150"
	   height="150"
	   width="150"
	   id="A2"
	   style="fill:#ffffff;stroke:none"	
	/>
	<rect
	   y="1050"
	   x="300"
	   height="150"
	   width="150"
	   id="A3"
	   style="fill:#000000;stroke:none"	
	/>
	<rect
	   style="fill:#ffffff;stroke:none"
	   id="A4"
	   width="150"
	   height="150"
	   x="450"
	   y="1050"	
	/>
	<rect
	   style="fill:#000000;stroke:none"
	   id="A5"
	   width="150"
	   height="150"
	   x="600"
	   y="1050"	
	/>
	<rect
	   y="1050"
	   x="750"
	   height="150"
	   width="150"
	   id="A6"
	   style="fill:#ffffff;stroke:none"	
	/>
	<rect
	   y="1050"
	   x="900"
	   height="150"
	   width="150"
	   id="A7"
	   style="fill:#000000;stroke:none"	
	/>
	<rect
	   style="fill:#ffffff;stroke:none"
	   id="A8"
	   width="150"
	   height="150"
	   x="1050"
	   y="1050"	
	/>
	<rect
	   y="900"
	   x="-1200"
	   height="150"
	   width="150"
	   id="B8"
	   style="fill:#000000;stroke:none"
	   transform="scale(-1,1)"	
	/>
	<rect
	   style="fill:#ffffff;stroke:none"
	   id="B7"
	   width="150"
	   height="150"
	   x="-1050"
	   y="900"
	   transform="scale(-1,1)"	
	/>
	<rect
	   style="fill:#000000;stroke:none"
	   id="B6"
	   width="150"
	   height="150"
	   x="-900"
	   y="900"
	   transform="scale(-1,1)"	
	/>
	<rect
	   y="900"
	   x="-750"
	   height="150"
	   width="150"
	   id="B5"
	   style="fill:#ffffff;stroke:none"
	   transform="scale(-1,1)"	
	/>
	<rect
	   y="900"
	   x="-600"
	   height="150"
	   width="150"
	   id="B4"
	   style="fill:#000000;stroke:none"
	   transform="scale(-1,1)"	
	/>
	<rect
	   style="fill:#ffffff;stroke:none"
	   id="B3"
	   width="150"
	   height="150"
	   x="-450"
	   y="900"
	   transform="scale(-1,1)"	
	/>
	<rect
	   style="fill:#000000;stroke:none"
	   id="B2"
	   width="150"
	   height="150"
	   x="-300"
	   y="900"
	   transform="scale(-1,1)"	
	/>
	<rect
	   y="900"
	   x="-150"
	   height="150"
	   width="150"
	   id="B1"
	   style="fill:#ffffff;stroke:none"
	   transform="scale(-1,1)"	
	/>
	<rect
	   y="750"
	   x="0"
	   height="150"
	   width="150"
	   id="C1"
	   style="fill:#000000;stroke:none"	
	/>
	<rect
	   style="fill:#ffffff;stroke:none"
	   id="C2"
	   width="150"
	   height="150"
	   x="150"
	   y="750"	
	/>
	<rect
	   style="fill:#000000;stroke:none"
	   id="C3"
	   width="150"
	   height="150"
	   x="300"
	   y="750"	
	/>
	<rect
	   y="750"
	   x="450"
	   height="150"
	   width="150"
	   id="C4"
	   style="fill:#ffffff;stroke:none"	
	/>
	<rect
	   y="750"
	   x="600"
	   height="150"
	   width="150"
	   id="C5"
	   style="fill:#000000;stroke:none"	
	/>
	<rect
	   style="fill:#ffffff;stroke:none"
	   id="C6"
	   width="150"
	   height="150"
	   x="750"
	   y="750"	
	/>
	<rect
	   style="fill:#000000;stroke:none"
	   id="C7"
	   width="150"
	   height="150"
	   x="900"
	   y="750"	
	/>
	<rect
	   y="750"
	   x="1050"
	   height="150"
	   width="150"
	   id="C8"
	   style="fill:#ffffff;stroke:none"	
	/>
	<rect
	   style="fill:#000000;stroke:none"
	   id="D8"
	   width="150"
	   height="150"
	   x="-1200"
	   y="600"
	   transform="scale(-1,1)"	
	/>
	<rect
	   y="600"
	   x="-1050"
	   height="150"
	   width="150"
	   id="D7"
	   style="fill:#ffffff;stroke:none"
	   transform="scale(-1,1)"	
	/>
	<rect
	   y="600"
	   x="-900"
	   height="150"
	   width="150"
	   id="D6"
	   style="fill:#000000;stroke:none"
	   transform="scale(-1,1)"	
	/>
	<rect
	   style="fill:#ffffff;stroke:none"
	   id="D5"
	   width="150"
	   height="150"
	   x="-750"
	   y="600"
	   transform="scale(-1,1)"	
	/>
	<rect
	   style="fill:#000000;stroke:none"
	   id="D4"
	   width="150"
	   height="150"
	   x="-600"
	   y="600"
	   transform="scale(-1,1)"	
	/>
	<rect
	   y="600"
	   x="-450"
	   height="150"
	   width="150"
	   id="D3"
	   style="fill:#ffffff;stroke:none"
	   transform="scale(-1,1)"	
	/>
	<rect
	   y="600"
	   x="-300"
	   height="150"
	   width="150"
	   id="D2"
	   style="fill:#000000;stroke:none"
	   transform="scale(-1,1)"	
	/>
	<rect
	   style="fill:#ffffff;stroke:none"
	   id="D1"
	   width="150"
	   height="150"
	   x="-150"
	   y="600"
	   transform="scale(-1,1)"	
	/>
	<rect
	   style="fill:#000000;stroke:none"
	   id="E1"
	   width="150"
	   height="150"
	   x="0"
	   y="450"	
	/>
	<rect
	   y="450"
	   x="150"
	   height="150"
	   width="150"
	   id="E2"
	   style="fill:#ffffff;stroke:none"	
	/>
	<rect
	   y="450"
	   x="300"
	   height="150"
	   width="150"
	   id="E3"
	   style="fill:#000000;stroke:none"	
	/>
	<rect
	   style="fill:#ffffff;stroke:none"
	   id="E4"
	   width="150"
	   height="150"
	   x="450"
	   y="450"	
	/>
	<rect
	   style="fill:#000000;stroke:none"
	   id="E5"
	   width="150"
	   height="150"
	   x="600"
	   y="450"	
	/>
	<rect
	   y="450"
	   x="750"
	   height="150"
	   width="150"
	   id="E6"
	   style="fill:#ffffff;stroke:none"	
	/>
	<rect
	   y="450"
	   x="900"
	   height="150"
	   width="150"
	   id="E7"
	   style="fill:#000000;stroke:none"	
	/>
	<rect
	   style="fill:#ffffff;stroke:none"
	   id="E8"
	   width="150"
	   height="150"
	   x="1050"
	   y="450"	
	/>
	<rect
	   y="300"
	   x="-1200"
	   height="150"
	   width="150"
	   id="F8"
	   style="fill:#000000;stroke:none"
	   transform="scale(-1,1)"	
	/>
	<rect
	   style="fill:#ffffff;stroke:none"
	   id="F7"
	   width="150"
	   height="150"
	   x="-1050"
	   y="300"
	   transform="scale(-1,1)"	
	/>
	<rect
	   style="fill:#000000;stroke:none"
	   id="F6"
	   width="150"
	   height="150"
	   x="-900"
	   y="300"
	   transform="scale(-1,1)"	
	/>
	<rect
	   y="300"
	   x="-750"
	   height="150"
	   width="150"
	   id="F5"
	   style="fill:#ffffff;stroke:none"
	   transform="scale(-1,1)"	
	/>
	<rect
	   y="300"
	   x="-600"
	   height="150"
	   width="150"
	   id="F4"
	   style="fill:#000000;stroke:none"
	   transform="scale(-1,1)"	
	/>
	<rect
	   style="fill:#ffffff;stroke:none"
	   id="F3"
	   width="150"
	   height="150"
	   x="-450"
	   y="300"
	   transform="scale(-1,1)"	
	/>
	<rect
	   style="fill:#000000;stroke:none"
	   id="F2"
	   width="150"
	   height="150"
	   x="-300"
	   y="300"
	   transform="scale(-1,1)"	
	/>
	<rect
	   y="300"
	   x="-150"
	   height="150"
	   width="150"
	   id="F1"
	   style="fill:#ffffff;stroke:none"
	   transform="scale(-1,1)"	
	/>
	<rect
	   y="150"
	   x="0"
	   height="150"
	   width="150"
	   id="G1"
	   style="fill:#000000;stroke:none"	
	/>
	<rect
	   style="fill:#ffffff;stroke:none"
	   id="G2"
	   width="150"
	   height="150"
	   x="150"
	   y="150"	
	/>
	<rect
	   style="fill:#000000;stroke:none"
	   id="G3"
	   width="150"
	   height="150"
	   x="300"
	   y="150"	
	/>
	<rect
	   y="150"
	   x="450"
	   height="150"
	   width="150"
	   id="G4"
	   style="fill:#ffffff;stroke:none"	
	/>
	<rect
	   y="150"
	   x="600"
	   height="150"
	   width="150"
	   id="G5"
	   style="fill:#000000;stroke:none"	
	/>
	<rect
	   style="fill:#ffffff;stroke:none"
	   id="G6"
	   width="150"
	   height="150"
	   x="750"
	   y="150"	
	/>
	<rect
	   style="fill:#000000;stroke:none"
	   id="G7"
	   width="150"
	   height="150"
	   x="900"
	   y="150"	
	/>
	<rect
	   y="150"
	   x="1050"
	   height="150"
	   width="150"
	   id="G8"
	   style="fill:#ffffff;stroke:none"	
	/>
	<rect
	   style="fill:#000000;stroke:none"
	   id="H8"
	   width="150"
	   height="150"
	   x="-1200"
	   y="0"
	   transform="scale(-1,1)"	
	/>
	<rect
	   y="0"
	   x="-1050"
	   height="150"
	   width="150"
	   id="H7"
	   style="fill:#ffffff;stroke:none"
	   transform="scale(-1,1)"	
	/>
	<rect
	   y="0"
	   x="-900"
	   height="150"
	   width="150"
	   id="H6"
	   style="fill:#000000;stroke:none"
	   transform="scale(-1,1)"	
	/>
	<rect
	   style="fill:#ffffff;stroke:none"
	   id="H5"
	   width="150"
	   height="150"
	   x="-750"
	   y="0"
	   transform="scale(-1,1)"	
	/>
	<rect
	   style="fill:#000000;stroke:none"
	   id="H4"
	   width="150"
	   height="150"
	   x="-600"
	   y="0"
	   transform="scale(-1,1)"	
	/>
	<rect
	   y="0"
	   x="-450"
	   height="150"
	   width="150"
	   id="H3"
	   style="fill:#ffffff;stroke:none"
	   transform="scale(-1,1)"	
	/>
	<rect
	   y="0"
	   x="-300"
	   height="150"
	   width="150"
	   id="H2"
	   style="fill:#000000;stroke:none"
	   transform="scale(-1,1)"	
	/>
	<rect
	   style="fill:#ffffff;stroke:none"
	   id="H1"
	   width="150"
	   height="150"
	   x="-150"
	   y="0"
	   transform="scale(-1,1)"	
	/>
	<rect
	   transform="scale(-1,1)"
	   y="5"
	   x="-1195"
	   height="1190"
	   width="1190"
	   style="fill:none;stroke:#333333;stroke-width:10;stroke-miterlimit:4;stroke-opacity:1;stroke-dasharray:none"	
	/>
</svg>