<?xml version="1.0" encoding="UTF-8" standalone="no"?>

<svg
   xmlns:svg="http://www.w3.org/2000/svg"
   xmlns="http://www.w3.org/2000/svg"
   x="0px"
   y="0px"
   width="1200px"
   height="1200px"
   viewBox="0 0 1200 1200"
   enable-background="new 0 0 1200 1200">
	<rect
	   style="fill:#000000;fill-opacity:1;stroke:none"
	   id="rect3208"
	   width="150"
	   height="150"
	   x="0"
	   y="1050"
	/>
	<rect
	   y="1050"
	   x="150"
	   height="150"
	   width="150"
	   id="rect3978"
	   style="fill:#ffffff;fill-opacity:1;stroke:none"	
	/>
	<rect
	   y="1050"
	   x="300"
	   height="150"
	   width="150"
	   id="rect3980"
	   style="fill:#000000;fill-opacity:1;stroke:none"	
	/>
	<rect
	   style="fill:#ffffff;fill-opacity:1;stroke:none"
	   id="rect3982"
	   width="150"
	   height="150"
	   x="450"
	   y="1050"	
	/>
	<rect
	   style="fill:#000000;fill-opacity:1;stroke:none"
	   id="rect3984"
	   width="150"
	   height="150"
	   x="600"
	   y="1050"	
	/>
	<rect
	   y="1050"
	   x="750"
	   height="150"
	   width="150"
	   id="rect3986"
	   style="fill:#ffffff;fill-opacity:1;stroke:none"	
	/>
	<rect
	   y="1050"
	   x="900"
	   height="150"
	   width="150"
	   id="rect3988"
	   style="fill:#000000;fill-opacity:1;stroke:none"	
	/>
	<rect
	   style="fill:#ffffff;fill-opacity:1;stroke:none"
	   id="rect3990"
	   width="150"
	   height="150"
	   x="1050"
	   y="1050"	
	/>
	<rect
	   y="900"
	   x="-1200"
	   height="150"
	   width="150"
	   id="rect4004"
	   style="fill:#000000;fill-opacity:1;stroke:none"
	   transform="scale(-1,1)"	
	/>
	<rect
	   style="fill:#ffffff;fill-opacity:1;stroke:none"
	   id="rect4006"
	   width="150"
	   height="150"
	   x="-1050"
	   y="900"
	   transform="scale(-1,1)"	
	/>
	<rect
	   style="fill:#000000;fill-opacity:1;stroke:none"
	   id="rect4008"
	   width="150"
	   height="150"
	   x="-900"
	   y="900"
	   transform="scale(-1,1)"	
	/>
	<rect
	   y="900"
	   x="-750"
	   height="150"
	   width="150"
	   id="rect4010"
	   style="fill:#ffffff;fill-opacity:1;stroke:none"
	   transform="scale(-1,1)"	
	/>
	<rect
	   y="900"
	   x="-600"
	   height="150"
	   width="150"
	   id="rect4012"
	   style="fill:#000000;fill-opacity:1;stroke:none"
	   transform="scale(-1,1)"	
	/>
	<rect
	   style="fill:#ffffff;fill-opacity:1;stroke:none"
	   id="rect4014"
	   width="150"
	   height="150"
	   x="-450"
	   y="900"
	   transform="scale(-1,1)"	
	/>
	<rect
	   style="fill:#000000;fill-opacity:1;stroke:none"
	   id="rect4016"
	   width="150"
	   height="150"
	   x="-300"
	   y="900"
	   transform="scale(-1,1)"	
	/>
	<rect
	   y="900"
	   x="-150"
	   height="150"
	   width="150"
	   id="rect4018"
	   style="fill:#ffffff;fill-opacity:1;stroke:none"
	   transform="scale(-1,1)"	
	/>
	<rect
	   y="750"
	   x="0"
	   height="150"
	   width="150"
	   id="rect4022"
	   style="fill:#000000;fill-opacity:1;stroke:none"	
	/>
	<rect
	   style="fill:#ffffff;fill-opacity:1;stroke:none"
	   id="rect4024"
	   width="150"
	   height="150"
	   x="150"
	   y="750"	
	/>
	<rect
	   style="fill:#000000;fill-opacity:1;stroke:none"
	   id="rect4026"
	   width="150"
	   height="150"
	   x="300"
	   y="750"	
	/>
	<rect
	   y="750"
	   x="450"
	   height="150"
	   width="150"
	   id="rect4028"
	   style="fill:#ffffff;fill-opacity:1;stroke:none"	
	/>
	<rect
	   y="750"
	   x="600"
	   height="150"
	   width="150"
	   id="rect4030"
	   style="fill:#000000;fill-opacity:1;stroke:none"	
	/>
	<rect
	   style="fill:#ffffff;fill-opacity:1;stroke:none"
	   id="rect4032"
	   width="150"
	   height="150"
	   x="750"
	   y="750"	
	/>
	<rect
	   style="fill:#000000;fill-opacity:1;stroke:none"
	   id="rect4034"
	   width="150"
	   height="150"
	   x="900"
	   y="750"	
	/>
	<rect
	   y="750"
	   x="1050"
	   height="150"
	   width="150"
	   id="rect4036"
	   style="fill:#ffffff;fill-opacity:1;stroke:none"	
	/>
	<rect
	   style="fill:#000000;fill-opacity:1;stroke:none"
	   id="rect4040"
	   width="150"
	   height="150"
	   x="-1200"
	   y="600"
	   transform="scale(-1,1)"	
	/>
	<rect
	   y="600"
	   x="-1050"
	   height="150"
	   width="150"
	   id="rect4042"
	   style="fill:#ffffff;fill-opacity:1;stroke:none"
	   transform="scale(-1,1)"	
	/>
	<rect
	   y="600"
	   x="-900"
	   height="150"
	   width="150"
	   id="rect4044"
	   style="fill:#000000;fill-opacity:1;stroke:none"
	   transform="scale(-1,1)"	
	/>
	<rect
	   style="fill:#ffffff;fill-opacity:1;stroke:none"
	   id="rect4046"
	   width="150"
	   height="150"
	   x="-750"
	   y="600"
	   transform="scale(-1,1)"	
	/>
	<rect
	   style="fill:#000000;fill-opacity:1;stroke:none"
	   id="rect4048"
	   width="150"
	   height="150"
	   x="-600"
	   y="600"
	   transform="scale(-1,1)"	
	/>
	<rect
	   y="600"
	   x="-450"
	   height="150"
	   width="150"
	   id="rect4050"
	   style="fill:#ffffff;fill-opacity:1;stroke:none"
	   transform="scale(-1,1)"	
	/>
	<rect
	   y="600"
	   x="-300"
	   height="150"
	   width="150"
	   id="rect4052"
	   style="fill:#000000;fill-opacity:1;stroke:none"
	   transform="scale(-1,1)"	
	/>
	<rect
	   style="fill:#ffffff;fill-opacity:1;stroke:none"
	   id="rect4054"
	   width="150"
	   height="150"
	   x="-150"
	   y="600"
	   transform="scale(-1,1)"	
	/>
	<rect
	   style="fill:#000000;fill-opacity:1;stroke:none"
	   id="rect4058"
	   width="150"
	   height="150"
	   x="0"
	   y="450"	
	/>
	<rect
	   y="450"
	   x="150"
	   height="150"
	   width="150"
	   id="rect4060"
	   style="fill:#ffffff;fill-opacity:1;stroke:none"	
	/>
	<rect
	   y="450"
	   x="300"
	   height="150"
	   width="150"
	   id="rect4062"
	   style="fill:#000000;fill-opacity:1;stroke:none"	
	/>
	<rect
	   style="fill:#ffffff;fill-opacity:1;stroke:none"
	   id="rect4064"
	   width="150"
	   height="150"
	   x="450"
	   y="450"	
	/>
	<rect
	   style="fill:#000000;fill-opacity:1;stroke:none"
	   id="rect4066"
	   width="150"
	   height="150"
	   x="600"
	   y="450"	
	/>
	<rect
	   y="450"
	   x="750"
	   height="150"
	   width="150"
	   id="rect4068"
	   style="fill:#ffffff;fill-opacity:1;stroke:none"	
	/>
	<rect
	   y="450"
	   x="900"
	   height="150"
	   width="150"
	   id="rect4070"
	   style="fill:#000000;fill-opacity:1;stroke:none"	
	/>
	<rect
	   style="fill:#ffffff;fill-opacity:1;stroke:none"
	   id="rect4072"
	   width="150"
	   height="150"
	   x="1050"
	   y="450"	
	/>
	<rect
	   y="300"
	   x="-1200"
	   height="150"
	   width="150"
	   id="rect4076"
	   style="fill:#000000;fill-opacity:1;stroke:none"
	   transform="scale(-1,1)"	
	/>
	<rect
	   style="fill:#ffffff;fill-opacity:1;stroke:none"
	   id="rect4078"
	   width="150"
	   height="150"
	   x="-1050"
	   y="300"
	   transform="scale(-1,1)"	
	/>
	<rect
	   style="fill:#000000;fill-opacity:1;stroke:none"
	   id="rect4080"
	   width="150"
	   height="150"
	   x="-900"
	   y="300"
	   transform="scale(-1,1)"	
	/>
	<rect
	   y="300"
	   x="-750"
	   height="150"
	   width="150"
	   id="rect4082"
	   style="fill:#ffffff;fill-opacity:1;stroke:none"
	   transform="scale(-1,1)"	
	/>
	<rect
	   y="300"
	   x="-600"
	   height="150"
	   width="150"
	   id="rect4084"
	   style="fill:#000000;fill-opacity:1;stroke:none"
	   transform="scale(-1,1)"	
	/>
	<rect
	   style="fill:#ffffff;fill-opacity:1;stroke:none"
	   id="rect4086"
	   width="150"
	   height="150"
	   x="-450"
	   y="300"
	   transform="scale(-1,1)"	
	/>
	<rect
	   style="fill:#000000;fill-opacity:1;stroke:none"
	   id="rect4088"
	   width="150"
	   height="150"
	   x="-300"
	   y="300"
	   transform="scale(-1,1)"	
	/>
	<rect
	   y="300"
	   x="-150"
	   height="150"
	   width="150"
	   id="rect4090"
	   style="fill:#ffffff;fill-opacity:1;stroke:none"
	   transform="scale(-1,1)"	
	/>
	<rect
	   y="150"
	   x="0"
	   height="150"
	   width="150"
	   id="rect4094"
	   style="fill:#000000;fill-opacity:1;stroke:none"	
	/>
	<rect
	   style="fill:#ffffff;fill-opacity:1;stroke:none"
	   id="rect4096"
	   width="150"
	   height="150"
	   x="150"
	   y="150"	
	/>
	<rect
	   style="fill:#000000;fill-opacity:1;stroke:none"
	   id="rect4098"
	   width="150"
	   height="150"
	   x="300"
	   y="150"	
	/>
	<rect
	   y="150"
	   x="450"
	   height="150"
	   width="150"
	   id="rect4100"
	   style="fill:#ffffff;fill-opacity:1;stroke:none"	
	/>
	<rect
	   y="150"
	   x="600"
	   height="150"
	   width="150"
	   id="rect4102"
	   style="fill:#000000;fill-opacity:1;stroke:none"	
	/>
	<rect
	   style="fill:#ffffff;fill-opacity:1;stroke:none"
	   id="rect4104"
	   width="150"
	   height="150"
	   x="750"
	   y="150"	
	/>
	<rect
	   style="fill:#000000;fill-opacity:1;stroke:none"
	   id="rect4106"
	   width="150"
	   height="150"
	   x="900"
	   y="150"	
	/>
	<rect
	   y="150"
	   x="1050"
	   height="150"
	   width="150"
	   id="rect4108"
	   style="fill:#ffffff;fill-opacity:1;stroke:none"	
	/>
	<rect
	   style="fill:#000000;fill-opacity:1;stroke:none"
	   id="rect4112"
	   width="150"
	   height="150"
	   x="-1200"
	   y="0"
	   transform="scale(-1,1)"	
	/>
	<rect
	   y="0"
	   x="-1050"
	   height="150"
	   width="150"
	   id="rect4114"
	   style="fill:#ffffff;fill-opacity:1;stroke:none"
	   transform="scale(-1,1)"	
	/>
	<rect
	   y="0"
	   x="-900"
	   height="150"
	   width="150"
	   id="rect4116"
	   style="fill:#000000;fill-opacity:1;stroke:none"
	   transform="scale(-1,1)"	
	/>
	<rect
	   style="fill:#ffffff;fill-opacity:1;stroke:none"
	   id="rect4118"
	   width="150"
	   height="150"
	   x="-750"
	   y="0"
	   transform="scale(-1,1)"	
	/>
	<rect
	   style="fill:#000000;fill-opacity:1;stroke:none"
	   id="rect4120"
	   width="150"
	   height="150"
	   x="-600"
	   y="0"
	   transform="scale(-1,1)"	
	/>
	<rect
	   y="0"
	   x="-450"
	   height="150"
	   width="150"
	   id="rect4122"
	   style="fill:#ffffff;fill-opacity:1;stroke:none"
	   transform="scale(-1,1)"	
	/>
	<rect
	   y="0"
	   x="-300"
	   height="150"
	   width="150"
	   id="rect4124"
	   style="fill:#000000;fill-opacity:1;stroke:none"
	   transform="scale(-1,1)"	
	/>
	<rect
	   style="fill:#ffffff;fill-opacity:1;stroke:none"
	   id="rect4126"
	   width="150"
	   height="150"
	   x="-150"
	   y="0"
	   transform="scale(-1,1)"	
	/>
	<rect
	   transform="scale(-1,1)"
	   y="5"
	   x="-1195"
	   height="1190"
	   width="1190"
	   id="rect4386"
	   style="fill:none;stroke:#333333;stroke-width:10;stroke-miterlimit:4;stroke-opacity:1;stroke-dasharray:none"	
	/>
</svg>